<?xml version="1.0" standalone="no"?>
<!DOCTYPE svg PUBLIC "-//W3C//DTD SVG 20010904//EN"
 "http://www.w3.org/TR/2001/REC-SVG-20010904/DTD/svg10.dtd">
<svg version="1.0" xmlns="http://www.w3.org/2000/svg"
 width="260.000000pt" height="260.000000pt" viewBox="0 0 260.000000 260.000000"
 preserveAspectRatio="xMidYMid meet">
<metadata>
Created by potrace 1.11, written by Peter Selinger 2001-2013
</metadata>
<g transform="translate(0.000000,260.000000) scale(0.100000,-0.100000)"
fill="#000000" stroke="none">
<path d="M100 2319 c-62 -26 -100 -85 -100 -157 0 -57 27 -104 80 -140 29 -20
44 -23 93 -20 90 7 146 60 155 146 9 97 -55 173 -151 179 -29 1 -63 -2 -77 -8z"/>
<path d="M555 2311 c-104 -63 -122 -184 -40 -266 79 -78 220 -53 266 49 24 53
24 90 -2 143 -39 81 -152 119 -224 74z"/>
<path d="M1040 2323 c-103 -39 -141 -172 -75 -259 83 -109 258 -73 294 61 27
103 -58 206 -166 204 -21 0 -45 -3 -53 -6z"/>
<path d="M1463 2310 c-67 -41 -68 -44 -68 -350 0 -306 1 -309 68 -350 30 -19
53 -20 445 -20 l412 0 0 -90 0 -90 -405 0 c-444 0 -453 -1 -494 -58 -11 -17
-24 -44 -27 -61 -9 -44 21 -116 59 -143 32 -23 33 -23 487 -26 545 -4 569 -2
619 43 l36 33 3 519 c2 506 2 519 -18 551 -38 62 -38 62 -587 62 -476 0 -499
-1 -530 -20z m857 -355 l0 -95 -320 0 -320 0 0 95 0 95 320 0 320 0 0 -95z"/>
<path d="M120 1888 c-79 -23 -120 -79 -120 -166 0 -63 30 -109 90 -139 56 -29
96 -29 151 0 96 51 118 177 46 255 -44 47 -109 67 -167 50z"/>
<path d="M575 1885 c-120 -43 -149 -194 -54 -279 70 -64 157 -61 225 8 49 48
63 97 45 156 -29 97 -125 148 -216 115z"/>
<path d="M1047 1886 c-104 -38 -145 -141 -94 -236 81 -153 310 -93 311 81 0
110 -115 192 -217 155z"/>
<path d="M85 1437 c-56 -32 -85 -79 -85 -138 0 -61 10 -87 50 -126 63 -61 156
-62 225 -2 87 77 66 222 -39 270 -55 25 -102 24 -151 -4z"/>
<path d="M565 1446 c-65 -29 -113 -114 -101 -179 26 -135 187 -188 282 -93 64
64 69 157 11 223 -52 60 -126 78 -192 49z"/>
<path d="M1020 1437 c-103 -54 -119 -195 -31 -270 123 -103 312 11 271 163
-30 110 -141 160 -240 107z"/>
<path d="M2235 1003 c-75 -17 -117 -38 -153 -77 -81 -88 -73 -228 17 -290 32
-22 149 -62 241 -81 66 -14 90 -32 90 -69 0 -48 -28 -69 -99 -74 -76 -5 -127
11 -146 48 -8 16 -15 36 -15 45 0 12 -15 15 -85 15 l-86 0 7 -37 c25 -147 138
-220 324 -211 111 5 190 41 235 106 25 36 30 55 33 115 6 133 -49 183 -256
231 -136 32 -162 48 -146 94 12 35 71 56 133 48 61 -8 89 -29 97 -71 l6 -35
79 0 79 0 0 33 c0 57 -44 133 -95 166 -68 43 -181 62 -260 44z"/>
<path d="M0 635 l0 -356 73 3 72 3 5 231 5 231 127 -231 126 -231 81 -3 81 -3
0 356 0 355 -75 0 -75 0 -2 -230 -3 -229 -124 229 -123 230 -84 0 -84 0 0
-355z"/>
<path d="M642 638 l3 -353 238 -3 237 -2 0 75 0 75 -155 0 -155 0 0 80 0 80
145 0 145 0 0 65 0 65 -145 0 -145 0 0 65 0 65 155 0 155 0 0 70 0 70 -240 0
-240 0 2 -352z"/>
<path d="M1160 958 c5 -18 45 -168 90 -333 44 -165 84 -310 90 -323 9 -20 17
-22 80 -22 64 0 71 2 80 23 11 27 90 388 90 413 0 40 11 -2 54 -204 25 -117
48 -217 51 -223 8 -11 142 -12 149 -1 5 9 196 687 196 697 0 3 -37 5 -82 3
l-82 -3 -51 -217 c-27 -119 -53 -219 -56 -222 -3 -3 -25 96 -48 220 l-43 225
-81 -3 -80 -3 -43 -219 c-24 -121 -45 -224 -47 -229 -1 -5 -27 95 -57 222
l-54 231 -82 0 -82 0 8 -32z"/>
</g>
</svg>
